<?xml version="1.0" standalone="no"?>
<!DOCTYPE svg PUBLIC "-//W3C//DTD SVG 20010904//EN" "http://www.w3.org/TR/2001/REC-SVG-20010904/DTD/svg10.dtd">
<svg version="1.0" xmlns="http://www.w3.org/2000/svg" width="597.000000pt" height="502.000000pt" viewBox="0 0 597.000000 502.000000" preserveAspectRatio="xMidYMid meet">
	<metadata>
		Created by potrace 1.16, written by Peter Selinger 2001-2019
	</metadata>
	<g transform="translate(0.000000,502.000000) scale(0.100000,-0.100000)" fill="#ffffff" stroke="none">
		<path d="M2805 3997 c-66 -34 -180 -96 -252 -137 l-133 -74 -1 -75 c-1 -42 -2
-80 -4 -86 -1 -5 -3 -26 -3 -46 -2 -36 -4 -38 -124 -104 -68 -37 -198 -110
-290 -162 l-168 -95 0 -47 c0 -64 -11 -337 -15 -386 -2 -22 -4 -61 -4 -87 l-1
-46 -107 -57 c-60 -31 -112 -61 -117 -65 -19 -19 -3 -598 17 -616 15 -14 335
-192 433 -240 l70 -35 59 22 c32 12 71 22 86 21 30 -1 152 -60 334 -162 67
-38 177 -96 245 -130 l124 -62 106 52 c58 29 173 89 255 135 199 110 293 156
332 165 24 6 48 1 94 -17 l62 -25 91 46 c93 46 406 222 418 234 9 10 16 121
24 378 l6 221 -27 21 c-15 12 -69 43 -121 69 l-94 48 -1 75 c-1 41 -3 93 -4
115 -1 22 -3 114 -4 205 l-1 166 -122 66 c-68 37 -202 109 -298 161 l-175 95
-1 103 c0 57 -3 115 -7 129 -5 20 -46 46 -204 132 -220 119 -303 158 -336 158
-12 0 -76 -29 -142 -63z m327 -143 c93 -53 170 -99 172 -103 5 -7 -336 -191
-354 -191 -14 0 -185 90 -258 137 -57 36 -71 56 -53 77 7 8 60 39 119 70 60
31 124 67 142 81 19 13 41 24 49 25 8 0 91 -43 183 -96z m-472 -266 c134 -72
230 -139 237 -166 8 -34 -4 -333 -14 -343 -11 -11 -121 41 -256 119 l-98 57 2
150 c1 82 4 169 7 193 5 51 8 51 122 -10z m712 5 c2 -27 5 -114 7 -194 l2
-146 -138 -76 c-163 -89 -211 -112 -218 -106 -4 5 -10 287 -6 351 1 20 13 35
45 57 58 40 278 161 292 161 7 0 14 -21 16 -47z m-953 -320 l1 -91 266 -147
266 -148 31 16 c18 8 138 74 267 145 l235 130 2 89 c4 122 8 135 36 124 13 -5
93 -47 178 -94 85 -46 183 -99 217 -117 l64 -34 -3 -180 c-2 -100 -5 -193 -7
-209 l-4 -28 -86 47 -86 47 -46 -25 c-25 -14 -140 -78 -256 -142 -249 -137
-221 -85 -224 -406 -1 -118 -3 -241 -4 -273 l-2 -58 115 -64 c171 -94 164 -84
84 -129 -349 -196 -500 -279 -508 -279 -9 1 -520 282 -558 308 -16 11 -13 15
30 42 26 17 87 51 134 77 l87 47 1 247 c0 136 4 272 7 303 l6 56 -113 60 c-63
33 -185 99 -272 146 -87 48 -161 87 -166 87 -4 0 -43 -20 -87 -45 l-79 -45 -6
37 c-4 21 -7 114 -8 208 l-2 170 188 101 c305 165 287 157 295 136 3 -9 7 -58
7 -109z m-212 -634 c124 -65 232 -131 237 -145 5 -13 -47 -46 -224 -144 -112
-62 -87 -67 -311 57 l-158 87 117 64 c139 76 233 122 249 122 6 0 47 -19 90
-41z m1738 -30 c138 -76 185 -106 185 -118 0 -9 -117 -78 -248 -147 l-92 -49
-63 34 c-153 83 -267 154 -261 162 9 16 155 111 229 151 39 21 81 38 95 38 13
0 83 -32 155 -71z m-2066 -314 c104 -55 172 -97 175 -108 8 -32 7 -387 -2
-387 -4 0 -59 27 -122 60 -63 33 -143 75 -177 92 l-63 32 0 204 c0 127 4 202
10 200 5 -1 86 -43 179 -93z m651 -108 l0 -202 -167 -92 -168 -92 -9 32 c-13
49 0 369 16 379 43 28 314 178 320 178 5 0 8 -91 8 -203z m1022 112 c90 -50
164 -92 166 -94 2 -1 5 -79 8 -171 3 -93 7 -184 8 -201 2 -18 1 -33 -3 -33 -3
0 -82 40 -176 88 l-170 87 -3 208 c-1 114 0 207 2 207 2 0 78 -41 168 -91z
m662 -121 c-1 -137 -5 -183 -15 -193 -31 -29 -331 -187 -339 -179 -9 9 -17
381 -9 389 11 10 210 121 274 151 48 24 72 31 80 23 6 -6 9 -77 9 -191z" />
	</g>
</svg>
